# xmcd CD database file
#
# Track frame offsets:
#	150
#	15151
#	39217
#	60795
#	74144
#	92285
#
# Disc length: 1428 seconds
#
# Revision: 0
# Processed by: cddbd v1.5.2PL0 Copyright (c) Steve Scherf et al.
# Submitted via: CDex 1.70beta2
#
DISCID=37059206
DTITLE=Deborah Auer - Hot Session
DYEAR=2001
DGENRE=Jazz
TTITLE0=Man That Was A Dream
TTITLE1=Stone Crazy
TTITLE2=Don't Explain
TTITLE3=Sometimes I'm Happy
TTITLE4=Yellow Days
TTITLE5=Don't Blame Me
EXTD=YEAR: 2001
EXTT0=
EXTT1=
EXTT2=
EXTT3=
EXTT4=
EXTT5=
PLAYORDER=
